<?xml version="1.0" encoding="utf-8"?>
<!-- Generator: Adobe Illustrator 16.0.0, SVG Export Plug-In . SVG Version: 6.00 Build 0)  -->
<!DOCTYPE svg PUBLIC "-//W3C//DTD SVG 1.1//EN" "http://www.w3.org/Graphics/SVG/1.1/DTD/svg11.dtd">
<svg version="1.1" id="Calque_1" xmlns="http://www.w3.org/2000/svg" xmlns:xlink="http://www.w3.org/1999/xlink" x="0px" y="0px"
	 width="24px" height="24px" viewBox="0 0 24 24" enable-background="new 0 0 24 24" xml:space="preserve">
<path fill-rule="evenodd" clip-rule="evenodd" d="M9.916,20.003c-0.189,1.517,0.888,2.47,2.041,2.496
	c1.082,0.025,2.252-0.886,2.072-2.496c0.145,0,0.285,0,0.426,0c1.729,0,3.457,0.007,5.184-0.01c0.195-0.002,0.482-0.078,0.563-0.216
	c0.076-0.137-0.006-0.422-0.102-0.595c-0.467-0.825-0.975-1.628-1.441-2.453c-0.545-0.968-0.82-2.017-0.854-3.128
	c-0.031-1.106,0.031-2.226-0.137-3.311c-0.33-2.162-1.596-3.653-3.617-4.474c-0.336-0.137-0.469-0.294-0.43-0.649
	c0.031-0.296,0.008-0.598,0.004-0.898c-0.01-1.021-0.693-1.767-1.622-1.771c-0.987-0.004-1.681,0.73-1.691,1.79
	c-0.002,0.313-0.022,0.627,0.006,0.937c0.028,0.311-0.08,0.459-0.377,0.566C8.646,6.259,7.659,7.114,6.953,8.291
	c-0.578,0.962-0.806,2.016-0.816,3.13c-0.008,0.976-0.002,1.954-0.081,2.924c-0.082,1.013-0.488,1.934-1.009,2.801
	c-0.395,0.658-0.803,1.306-1.174,1.978c-0.108,0.195-0.203,0.49-0.127,0.663c0.06,0.135,0.391,0.204,0.602,0.206
	c1.714,0.017,3.43,0.01,5.144,0.01C9.632,20.003,9.771,20.003,9.916,20.003z M4.818,19.139c0.322-0.533,0.598-1.001,0.884-1.462
	c0.87-1.407,1.305-2.934,1.279-4.593c-0.012-0.78-0.051-1.567,0.021-2.342c0.223-2.379,2.233-4.329,4.563-4.482
	c2.459-0.162,4.694,1.398,5.208,3.782c0.213,0.988,0.156,2.041,0.18,3.065c0.02,0.903,0.121,1.784,0.385,2.653
	c0.33,1.087,0.969,2.007,1.535,2.968c0.074,0.125,0.143,0.251,0.232,0.41C14.318,19.139,9.606,19.139,4.818,19.139z M10.824,20.003
	c0.701,0,1.411-0.008,2.121,0.012c0.09,0.004,0.233,0.146,0.252,0.243c0.098,0.468-0.176,0.984-0.621,1.238
	c-0.455,0.261-1.01,0.206-1.409-0.14C10.758,21.003,10.633,20.533,10.824,20.003z M11.142,5.435c0-0.461-0.023-0.902,0.007-1.339
	c0.029-0.432,0.362-0.733,0.754-0.748c0.458-0.018,0.831,0.248,0.874,0.704c0.043,0.458,0.01,0.925,0.01,1.383
	C12.235,5.435,11.708,5.435,11.142,5.435z"/>
</svg>
