<?xml version="1.0" encoding="utf-8"?>
<!-- Generator: Adobe Illustrator 16.0.0, SVG Export Plug-In . SVG Version: 6.00 Build 0)  -->
<!DOCTYPE svg PUBLIC "-//W3C//DTD SVG 1.1//EN" "http://www.w3.org/Graphics/SVG/1.1/DTD/svg11.dtd">
<svg version="1.1" id="Calque_1" xmlns="http://www.w3.org/2000/svg" xmlns:xlink="http://www.w3.org/1999/xlink" x="0px" y="0px"
	 width="24px" height="24px" viewBox="0 0 24 24" enable-background="new 0 0 24 24" xml:space="preserve">
		<path d="M21.891,11.126L12,2l-9.891,9.126c-0.138,0.129-0.146,0.346-0.017,0.484c0.128,0.14,0.347,0.146,0.486,0.017l1.145-1.056
			V22h16.552V10.571l1.145,1.056c0.066,0.063,0.15,0.093,0.234,0.093c0.094,0,0.186-0.037,0.252-0.109
			C22.038,11.472,22.029,11.255,21.891,11.126L21.891,11.126z M9.93,21.314v-5.482c0-1.134,0.928-2.057,2.07-2.057
			c1.141,0,2.068,0.923,2.068,2.057v5.482H9.93z M19.586,21.314h-4.828v-5.482c0-1.512-1.238-2.742-2.758-2.742
			c-1.521,0-2.758,1.23-2.758,2.742v5.482H4.413V9.936L12,2.935l7.586,7.001V21.314z"/>
</svg>
