<?xml version="1.0" encoding="utf-8"?>
<!-- Generator: Adobe Illustrator 16.0.0, SVG Export Plug-In . SVG Version: 6.00 Build 0)  -->
<!DOCTYPE svg PUBLIC "-//W3C//DTD SVG 1.1//EN" "http://www.w3.org/Graphics/SVG/1.1/DTD/svg11.dtd">
<svg version="1.1" id="Calque_1" xmlns="http://www.w3.org/2000/svg" xmlns:xlink="http://www.w3.org/1999/xlink" x="0px" y="0px"
	 width="24px" height="24px" viewBox="0 0 24 24" enable-background="new 0 0 24 24" xml:space="preserve">
<path d="M21.695,20.216l-4.93-4.948c1.269-1.455,1.963-3.288,1.963-5.191c0-4.453-3.75-8.075-8.367-8.075C5.752,2,2,5.622,2,10.074
	c0,4.454,3.752,8.075,8.363,8.075c1.731,0,3.383-0.502,4.793-1.461l4.969,4.985C20.332,21.887,20.609,22,20.911,22
	c0.282,0,0.549-0.105,0.755-0.294C22.1,21.305,22.113,20.637,21.695,20.216L21.695,20.216z M10.363,4.107
	c3.411,0,6.183,2.679,6.183,5.967c0,3.292-2.772,5.969-6.183,5.969c-3.408,0-6.181-2.678-6.181-5.969
	C4.183,6.786,6.956,4.107,10.363,4.107L10.363,4.107z"/>
</svg>
